<?xml version="1.0" encoding="UTF-8" standalone="no"?>
<!DOCTYPE svg PUBLIC "-//W3C//DTD SVG 20010904//EN"
              "http://www.w3.org/TR/2001/REC-SVG-20010904/DTD/svg10.dtd">

<!-- TODO tweak stacked colors opacity to improve readability of overlaid text -->
<svg xmlns="http://www.w3.org/2000/svg"
     width="4in" height="26.66668in"
     viewBox="100 0 150 2000">
  <path id="Selection #1"
      fill="rgba(139,0,0,0.2)" stroke="" stroke-width="1"
      d="M 140.00,0.00
          C 140.00,0.00 161.00,0.00 161.00,0.00
            161.00,0.00 159.83,40.00 159.83,40.00
            159.83,40.00 147.27,120.00 147.27,120.00
            147.27,120.00 138.91,193.00 138.91,193.00
            138.91,193.00 138.00,203.00 138.00,203.00
            138.00,203.00 137.00,223.00 137.00,223.00
            137.00,223.00 137.00,247.00 137.00,247.00
            137.00,247.00 137.91,259.00 137.91,259.00
            138.81,272.08 138.67,280.49 144.31,293.00
            151.67,309.34 163.36,322.77 172.55,338.00
            182.17,353.94 186.73,367.46 188.09,386.00
            188.09,386.00 188.90,395.00 188.90,395.00
            187.54,425.83 162.16,454.27 145.67,479.00
            139.82,487.76 126.22,507.44 127.12,518.00
            127.85,526.58 139.29,532.58 146.00,536.42
            162.75,546.01 190.72,556.20 191.00,579.00
            191.28,602.99 178.04,613.50 158.00,623.76
            149.48,628.12 132.89,636.20 129.09,645.00
            128.03,647.45 128.04,649.41 128.00,652.00
            127.88,661.22 128.90,671.71 135.33,678.91
            142.35,686.78 155.12,689.29 164.10,701.00
            176.31,716.94 175.22,736.07 175.00,755.00
            174.86,766.77 170.07,782.78 166.33,794.00
            154.25,830.24 131.55,865.89 132.00,905.00
            132.17,919.58 143.65,945.90 149.40,960.00
            164.36,996.73 182.55,1032.28 195.00,1070.00
            200.89,1087.85 207.16,1118.46 181.00,1122.86
            178.08,1123.35 173.89,1124.02 171.00,1123.82
            171.00,1123.82 143.00,1120.08 143.00,1120.08
            143.00,1120.08 129.00,1120.08 129.00,1120.08
            129.00,1120.08 129.00,1128.00 129.00,1128.00
            129.06,1168.42 161.58,1213.83 176.99,1251.00
            188.00,1277.58 189.33,1292.86 189.00,1321.00
            188.81,1336.52 181.31,1363.72 176.72,1379.00
            169.95,1401.56 155.03,1445.05 155.00,1467.00
            155.00,1467.00 155.00,1482.00 155.00,1482.00
            155.41,1517.13 180.58,1575.65 181.00,1611.00
            181.00,1611.00 181.00,1625.00 181.00,1625.00
            180.98,1638.15 176.03,1650.93 171.20,1663.00
            171.20,1663.00 146.22,1718.00 146.22,1718.00
            140.13,1730.88 128.15,1755.36 127.00,1769.00
            142.70,1764.52 163.91,1745.97 180.00,1747.10
            198.43,1748.39 197.36,1769.69 191.19,1782.00
            179.43,1805.46 138.28,1829.68 127.00,1849.00
            145.10,1844.91 162.17,1833.76 181.00,1834.00
            190.03,1834.12 196.24,1838.49 196.90,1848.00
            197.45,1855.84 193.38,1862.09 188.71,1868.00
            181.02,1877.74 171.76,1886.23 163.00,1895.00
            159.37,1898.64 152.64,1904.96 151.44,1910.00
            150.82,1912.62 151.75,1917.11 152.00,1920.00
            152.00,1920.00 157.79,1951.00 157.79,1951.00
            161.39,1968.05 161.00,1982.81 161.00,2000.00
            161.00,2000.00 140.00,2000.00 140.00,2000.00
            140.00,1987.65 140.40,1977.35 138.57,1965.00
            135.96,1947.41 130.21,1929.89 130.00,1912.00
            129.97,1908.68 129.86,1905.22 130.79,1902.00
            135.04,1887.19 159.54,1870.22 169.00,1857.00
            159.35,1861.94 133.60,1870.85 123.00,1870.41
            102.78,1869.57 101.09,1850.47 109.34,1836.00
            118.34,1820.21 144.08,1801.92 158.00,1788.00
            163.89,1782.11 168.26,1778.62 172.00,1771.00
            160.55,1775.93 140.94,1788.85 130.00,1790.68
            115.33,1793.13 106.07,1787.59 106.00,1772.00
            106.00,1772.00 106.00,1768.00 106.00,1768.00
            106.17,1753.73 116.07,1731.11 122.22,1718.00
            122.22,1718.00 142.31,1675.00 142.31,1675.00
            148.67,1661.13 159.82,1638.08 160.00,1623.00
            160.00,1623.00 160.00,1613.00 160.00,1613.00
            159.89,1604.27 157.08,1591.68 155.21,1583.00
            149.23,1555.27 134.32,1511.82 134.00,1485.00
            133.74,1462.73 133.57,1455.15 138.65,1433.00
            138.65,1433.00 159.42,1362.00 159.42,1362.00
            163.24,1348.62 167.98,1329.78 168.00,1316.00
            168.00,1316.00 168.00,1303.00 168.00,1303.00
            167.79,1285.45 159.53,1264.78 152.31,1249.00
            135.77,1212.89 108.06,1171.97 108.00,1131.00
            107.99,1126.99 107.69,1118.49 108.61,1115.00
            112.91,1098.78 127.53,1098.85 141.00,1099.00
            141.00,1099.00 172.00,1102.66 172.00,1102.66
            172.00,1102.66 179.00,1102.00 179.00,1102.00
            179.00,1102.00 179.00,1098.00 179.00,1098.00
            178.93,1082.70 166.67,1054.65 160.42,1040.00
            160.42,1040.00 132.72,976.00 132.72,976.00
            125.41,959.07 111.08,925.75 111.00,908.00
            111.00,908.00 111.00,894.00 111.00,894.00
            111.37,862.77 135.84,817.46 146.00,787.00
            149.49,776.53 153.87,763.03 154.00,752.00
            154.14,739.60 155.07,725.52 147.21,715.04
            141.87,707.91 131.21,704.42 123.01,697.54
            112.38,688.60 107.16,672.60 107.00,659.00
            106.95,654.30 106.71,645.24 107.68,641.00
            111.00,626.52 122.91,618.34 135.00,611.43
            143.89,606.34 154.14,602.28 161.96,595.54
            165.62,592.39 169.77,587.06 169.84,582.00
            169.96,572.84 152.18,564.45 145.00,560.74
            132.95,554.52 114.30,544.64 108.52,532.00
            105.70,525.85 105.93,521.53 106.00,515.00
            106.14,503.46 111.70,492.80 117.28,483.00
            117.28,483.00 155.40,426.00 155.40,426.00
            161.12,416.39 167.00,406.48 167.63,395.00
            167.63,395.00 167.08,388.00 167.08,388.00
            164.50,355.01 143.45,337.34 128.44,310.00
            121.83,297.98 118.02,283.65 117.00,270.00
            117.00,270.00 117.00,261.00 117.00,261.00
            117.00,261.00 116.00,249.00 116.00,249.00
            116.00,249.00 116.00,222.00 116.00,222.00
            116.00,222.00 117.00,205.00 117.00,205.00
            117.00,205.00 117.91,191.00 117.91,191.00
            119.78,163.86 123.30,136.94 127.27,110.00
            130.77,86.25 139.97,41.75 140.00,20.00
            140.00,20.00 140.00,0.00 140.00,0.00 Z
          M 173.00,1770.00
          C 173.00,1770.00 172.00,1770.00 172.00,1770.00
            172.00,1770.00 173.00,1771.00 173.00,1771.00
            173.00,1771.00 173.00,1770.00 173.00,1770.00 Z" />
  
  <path id="Selection #2" transform="translate(15)"
        fill="rgba(255,140,0,0.2)" x="200" stroke="" stroke-width="1"
        d="M 140.00,0.00
           C 140.00,0.00 161.00,0.00 161.00,0.00
             161.00,0.00 159.83,40.00 159.83,40.00
             159.83,40.00 147.27,120.00 147.27,120.00
             147.27,120.00 138.91,193.00 138.91,193.00
             138.91,193.00 138.00,203.00 138.00,203.00
             138.00,203.00 137.00,223.00 137.00,223.00
             137.00,223.00 137.00,247.00 137.00,247.00
             137.00,247.00 137.91,259.00 137.91,259.00
             138.81,272.08 138.67,280.49 144.31,293.00
             151.67,309.34 163.36,322.77 172.55,338.00
             182.17,353.94 186.73,367.46 188.09,386.00
             188.09,386.00 188.90,395.00 188.90,395.00
             187.54,425.83 162.16,454.27 145.67,479.00
             139.82,487.76 126.22,507.44 127.12,518.00
             127.85,526.58 139.29,532.58 146.00,536.42
             162.75,546.01 190.72,556.20 191.00,579.00
             191.28,602.99 178.04,613.50 158.00,623.76
             149.48,628.12 132.89,636.20 129.09,645.00
             128.03,647.45 128.04,649.41 128.00,652.00
             127.88,661.22 128.90,671.71 135.33,678.91
             142.35,686.78 155.12,689.29 164.10,701.00
             176.31,716.94 175.22,736.07 175.00,755.00
             174.86,766.77 170.07,782.78 166.33,794.00
             154.25,830.24 131.55,865.89 132.00,905.00
             132.17,919.58 143.65,945.90 149.40,960.00
             164.36,996.73 182.55,1032.28 195.00,1070.00
             200.89,1087.85 207.16,1118.46 181.00,1122.86
             178.08,1123.35 173.89,1124.02 171.00,1123.82
             171.00,1123.82 143.00,1120.08 143.00,1120.08
             143.00,1120.08 129.00,1120.08 129.00,1120.08
             129.00,1120.08 129.00,1128.00 129.00,1128.00
             129.06,1168.42 161.58,1213.83 176.99,1251.00
             188.00,1277.58 189.33,1292.86 189.00,1321.00
             188.81,1336.52 181.31,1363.72 176.72,1379.00
             169.95,1401.56 155.03,1445.05 155.00,1467.00
             155.00,1467.00 155.00,1482.00 155.00,1482.00
             155.41,1517.13 180.58,1575.65 181.00,1611.00
             181.00,1611.00 181.00,1625.00 181.00,1625.00
             180.98,1638.15 176.03,1650.93 171.20,1663.00
             171.20,1663.00 146.22,1718.00 146.22,1718.00
             140.13,1730.88 128.15,1755.36 127.00,1769.00
             142.70,1764.52 163.91,1745.97 180.00,1747.10
             198.43,1748.39 197.36,1769.69 191.19,1782.00
             179.43,1805.46 138.28,1829.68 127.00,1849.00
             145.10,1844.91 162.17,1833.76 181.00,1834.00
             190.03,1834.12 196.24,1838.49 196.90,1848.00
             197.45,1855.84 193.38,1862.09 188.71,1868.00
             181.02,1877.74 171.76,1886.23 163.00,1895.00
             159.37,1898.64 152.64,1904.96 151.44,1910.00
             150.82,1912.62 151.75,1917.11 152.00,1920.00
             152.00,1920.00 157.79,1951.00 157.79,1951.00
             161.39,1968.05 161.00,1982.81 161.00,2000.00
             161.00,2000.00 140.00,2000.00 140.00,2000.00
             140.00,1987.65 140.40,1977.35 138.57,1965.00
             135.96,1947.41 130.21,1929.89 130.00,1912.00
             129.97,1908.68 129.86,1905.22 130.79,1902.00
             135.04,1887.19 159.54,1870.22 169.00,1857.00
             159.35,1861.94 133.60,1870.85 123.00,1870.41
             102.78,1869.57 101.09,1850.47 109.34,1836.00
             118.34,1820.21 144.08,1801.92 158.00,1788.00
             163.89,1782.11 168.26,1778.62 172.00,1771.00
             160.55,1775.93 140.94,1788.85 130.00,1790.68
             115.33,1793.13 106.07,1787.59 106.00,1772.00
             106.00,1772.00 106.00,1768.00 106.00,1768.00
             106.17,1753.73 116.07,1731.11 122.22,1718.00
             122.22,1718.00 142.31,1675.00 142.31,1675.00
             148.67,1661.13 159.82,1638.08 160.00,1623.00
             160.00,1623.00 160.00,1613.00 160.00,1613.00
             159.89,1604.27 157.08,1591.68 155.21,1583.00
             149.23,1555.27 134.32,1511.82 134.00,1485.00
             133.74,1462.73 133.57,1455.15 138.65,1433.00
             138.65,1433.00 159.42,1362.00 159.42,1362.00
             163.24,1348.62 167.98,1329.78 168.00,1316.00
             168.00,1316.00 168.00,1303.00 168.00,1303.00
             167.79,1285.45 159.53,1264.78 152.31,1249.00
             135.77,1212.89 108.06,1171.97 108.00,1131.00
             107.99,1126.99 107.69,1118.49 108.61,1115.00
             112.91,1098.78 127.53,1098.85 141.00,1099.00
             141.00,1099.00 172.00,1102.66 172.00,1102.66
             172.00,1102.66 179.00,1102.00 179.00,1102.00
             179.00,1102.00 179.00,1098.00 179.00,1098.00
             178.93,1082.70 166.67,1054.65 160.42,1040.00
             160.42,1040.00 132.72,976.00 132.72,976.00
             125.41,959.07 111.08,925.75 111.00,908.00
             111.00,908.00 111.00,894.00 111.00,894.00
             111.37,862.77 135.84,817.46 146.00,787.00
             149.49,776.53 153.87,763.03 154.00,752.00
             154.14,739.60 155.07,725.52 147.21,715.04
             141.87,707.91 131.21,704.42 123.01,697.54
             112.38,688.60 107.16,672.60 107.00,659.00
             106.95,654.30 106.71,645.24 107.68,641.00
             111.00,626.52 122.91,618.34 135.00,611.43
             143.89,606.34 154.14,602.28 161.96,595.54
             165.62,592.39 169.77,587.06 169.84,582.00
             169.96,572.84 152.18,564.45 145.00,560.74
             132.95,554.52 114.30,544.64 108.52,532.00
             105.70,525.85 105.93,521.53 106.00,515.00
             106.14,503.46 111.70,492.80 117.28,483.00
             117.28,483.00 155.40,426.00 155.40,426.00
             161.12,416.39 167.00,406.48 167.63,395.00
             167.63,395.00 167.08,388.00 167.08,388.00
             164.50,355.01 143.45,337.34 128.44,310.00
             121.83,297.98 118.02,283.65 117.00,270.00
             117.00,270.00 117.00,261.00 117.00,261.00
             117.00,261.00 116.00,249.00 116.00,249.00
             116.00,249.00 116.00,222.00 116.00,222.00
             116.00,222.00 117.00,205.00 117.00,205.00
             117.00,205.00 117.91,191.00 117.91,191.00
             119.78,163.86 123.30,136.94 127.27,110.00
             130.77,86.25 139.97,41.75 140.00,20.00
             140.00,20.00 140.00,0.00 140.00,0.00 Z
           M 173.00,1770.00
           C 173.00,1770.00 172.00,1770.00 172.00,1770.00
             172.00,1770.00 173.00,1771.00 173.00,1771.00
             173.00,1771.00 173.00,1770.00 173.00,1770.00 Z" />
  
  <path id="Selection #2" transform="translate(-10)"
        fill="rgba(48,25,52,0.2)" x="200" stroke="" stroke-width="1"
        d="M 140.00,0.00
           C 140.00,0.00 161.00,0.00 161.00,0.00
             161.00,0.00 159.83,40.00 159.83,40.00
             159.83,40.00 147.27,120.00 147.27,120.00
             147.27,120.00 138.91,193.00 138.91,193.00
             138.91,193.00 138.00,203.00 138.00,203.00
             138.00,203.00 137.00,223.00 137.00,223.00
             137.00,223.00 137.00,247.00 137.00,247.00
             137.00,247.00 137.91,259.00 137.91,259.00
             138.81,272.08 138.67,280.49 144.31,293.00
             151.67,309.34 163.36,322.77 172.55,338.00
             182.17,353.94 186.73,367.46 188.09,386.00
             188.09,386.00 188.90,395.00 188.90,395.00
             187.54,425.83 162.16,454.27 145.67,479.00
             139.82,487.76 126.22,507.44 127.12,518.00
             127.85,526.58 139.29,532.58 146.00,536.42
             162.75,546.01 190.72,556.20 191.00,579.00
             191.28,602.99 178.04,613.50 158.00,623.76
             149.48,628.12 132.89,636.20 129.09,645.00
             128.03,647.45 128.04,649.41 128.00,652.00
             127.88,661.22 128.90,671.71 135.33,678.91
             142.35,686.78 155.12,689.29 164.10,701.00
             176.31,716.94 175.22,736.07 175.00,755.00
             174.86,766.77 170.07,782.78 166.33,794.00
             154.25,830.24 131.55,865.89 132.00,905.00
             132.17,919.58 143.65,945.90 149.40,960.00
             164.36,996.73 182.55,1032.28 195.00,1070.00
             200.89,1087.85 207.16,1118.46 181.00,1122.86
             178.08,1123.35 173.89,1124.02 171.00,1123.82
             171.00,1123.82 143.00,1120.08 143.00,1120.08
             143.00,1120.08 129.00,1120.08 129.00,1120.08
             129.00,1120.08 129.00,1128.00 129.00,1128.00
             129.06,1168.42 161.58,1213.83 176.99,1251.00
             188.00,1277.58 189.33,1292.86 189.00,1321.00
             188.81,1336.52 181.31,1363.72 176.72,1379.00
             169.95,1401.56 155.03,1445.05 155.00,1467.00
             155.00,1467.00 155.00,1482.00 155.00,1482.00
             155.41,1517.13 180.58,1575.65 181.00,1611.00
             181.00,1611.00 181.00,1625.00 181.00,1625.00
             180.98,1638.15 176.03,1650.93 171.20,1663.00
             171.20,1663.00 146.22,1718.00 146.22,1718.00
             140.13,1730.88 128.15,1755.36 127.00,1769.00
             142.70,1764.52 163.91,1745.97 180.00,1747.10
             198.43,1748.39 197.36,1769.69 191.19,1782.00
             179.43,1805.46 138.28,1829.68 127.00,1849.00
             145.10,1844.91 162.17,1833.76 181.00,1834.00
             190.03,1834.12 196.24,1838.49 196.90,1848.00
             197.45,1855.84 193.38,1862.09 188.71,1868.00
             181.02,1877.74 171.76,1886.23 163.00,1895.00
             159.37,1898.64 152.64,1904.96 151.44,1910.00
             150.82,1912.62 151.75,1917.11 152.00,1920.00
             152.00,1920.00 157.79,1951.00 157.79,1951.00
             161.39,1968.05 161.00,1982.81 161.00,2000.00
             161.00,2000.00 140.00,2000.00 140.00,2000.00
             140.00,1987.65 140.40,1977.35 138.57,1965.00
             135.96,1947.41 130.21,1929.89 130.00,1912.00
             129.97,1908.68 129.86,1905.22 130.79,1902.00
             135.04,1887.19 159.54,1870.22 169.00,1857.00
             159.35,1861.94 133.60,1870.85 123.00,1870.41
             102.78,1869.57 101.09,1850.47 109.34,1836.00
             118.34,1820.21 144.08,1801.92 158.00,1788.00
             163.89,1782.11 168.26,1778.62 172.00,1771.00
             160.55,1775.93 140.94,1788.85 130.00,1790.68
             115.33,1793.13 106.07,1787.59 106.00,1772.00
             106.00,1772.00 106.00,1768.00 106.00,1768.00
             106.17,1753.73 116.07,1731.11 122.22,1718.00
             122.22,1718.00 142.31,1675.00 142.31,1675.00
             148.67,1661.13 159.82,1638.08 160.00,1623.00
             160.00,1623.00 160.00,1613.00 160.00,1613.00
             159.89,1604.27 157.08,1591.68 155.21,1583.00
             149.23,1555.27 134.32,1511.82 134.00,1485.00
             133.74,1462.73 133.57,1455.15 138.65,1433.00
             138.65,1433.00 159.42,1362.00 159.42,1362.00
             163.24,1348.62 167.98,1329.78 168.00,1316.00
             168.00,1316.00 168.00,1303.00 168.00,1303.00
             167.79,1285.45 159.53,1264.78 152.31,1249.00
             135.77,1212.89 108.06,1171.97 108.00,1131.00
             107.99,1126.99 107.69,1118.49 108.61,1115.00
             112.91,1098.78 127.53,1098.85 141.00,1099.00
             141.00,1099.00 172.00,1102.66 172.00,1102.66
             172.00,1102.66 179.00,1102.00 179.00,1102.00
             179.00,1102.00 179.00,1098.00 179.00,1098.00
             178.93,1082.70 166.67,1054.65 160.42,1040.00
             160.42,1040.00 132.72,976.00 132.72,976.00
             125.41,959.07 111.08,925.75 111.00,908.00
             111.00,908.00 111.00,894.00 111.00,894.00
             111.37,862.77 135.84,817.46 146.00,787.00
             149.49,776.53 153.87,763.03 154.00,752.00
             154.14,739.60 155.07,725.52 147.21,715.04
             141.87,707.91 131.21,704.42 123.01,697.54
             112.38,688.60 107.16,672.60 107.00,659.00
             106.95,654.30 106.71,645.24 107.68,641.00
             111.00,626.52 122.91,618.34 135.00,611.43
             143.89,606.34 154.14,602.28 161.96,595.54
             165.62,592.39 169.77,587.06 169.84,582.00
             169.96,572.84 152.18,564.45 145.00,560.74
             132.95,554.52 114.30,544.64 108.52,532.00
             105.70,525.85 105.93,521.53 106.00,515.00
             106.14,503.46 111.70,492.80 117.28,483.00
             117.28,483.00 155.40,426.00 155.40,426.00
             161.12,416.39 167.00,406.48 167.63,395.00
             167.63,395.00 167.08,388.00 167.08,388.00
             164.50,355.01 143.45,337.34 128.44,310.00
             121.83,297.98 118.02,283.65 117.00,270.00
             117.00,270.00 117.00,261.00 117.00,261.00
             117.00,261.00 116.00,249.00 116.00,249.00
             116.00,249.00 116.00,222.00 116.00,222.00
             116.00,222.00 117.00,205.00 117.00,205.00
             117.00,205.00 117.91,191.00 117.91,191.00
             119.78,163.86 123.30,136.94 127.27,110.00
             130.77,86.25 139.97,41.75 140.00,20.00
             140.00,20.00 140.00,0.00 140.00,0.00 Z
           M 173.00,1770.00
           C 173.00,1770.00 172.00,1770.00 172.00,1770.00
             172.00,1770.00 173.00,1771.00 173.00,1771.00
             173.00,1771.00 173.00,1770.00 173.00,1770.00 Z" />
</svg>
