<svg width="330" height="330" xmlns="http://www.w3.org/2000/svg">
 <g>
  <path fill="rgba(255,255,255,0)" stroke-width="10" d="m109.1374,165.31352l23.78572,-47.57142l63.42857,0l23.78571,47.57142l-23.78571,47.57143l-63.42857,0l-23.78572,-47.57143z" id="svg_10" stroke="#FFF"/>
  <path fill="rgba(255,255,255,0)" stroke-width="10" d="m109.13741,55.30437l23.78572,-47.57142l63.42857,0l23.78571,47.57142l-23.78571,47.57143l-63.42857,0l-23.78572,-47.57143z" id="svg_4" stroke="#FFF"/>
  <path fill="rgba(255,255,255,0)" stroke-width="10" d="m109.15558,274.94103l23.78572,-47.57142l63.42857,0l23.78571,47.57142l-23.78571,47.57143l-63.42857,0l-23.78572,-47.57143z" id="svg_5" stroke="#FFF"/>
  <path fill="rgba(255,255,255,0)" stroke-width="10" d="m209.27387,110.30292l23.78572,-47.57142l63.42857,0l23.78571,47.57142l-23.78571,47.57143l-63.42857,0l-23.78572,-47.57143z" id="svg_13" stroke="#FFF"/>
  <path fill="rgba(255,255,255,0)" stroke-width="10" d="m209.06669,220.20441l23.78572,-47.57142l63.42857,0l23.78571,47.57142l-23.78571,47.57143l-63.42857,0l-23.78572,-47.57143z" id="svg_14" stroke="#FFF"/>
  <path fill="rgba(255,255,255,0)" stroke-width="10" d="m9.27351,110.80292l23.78572,-47.57142l63.42857,0l23.78571,47.57142l-23.78571,47.57143l-63.42857,0l-23.78572,-47.57143z" id="svg_15" stroke="#FFF"/>
  <path fill="rgba(255,255,255,0)" stroke-width="10" d="m9.06633,220.20441l23.78572,-47.57142l63.42857,0l23.78571,47.57142l-23.78571,47.57143l-63.42857,0l-23.78572,-47.57143z" id="svg_16" stroke="#FFF"/>
 </g>
</svg>
