<?xml version="1.0" standalone="no"?>
<!DOCTYPE svg PUBLIC "-//W3C//DTD SVG 20010904//EN"
 "http://www.w3.org/TR/2001/REC-SVG-20010904/DTD/svg10.dtd">
<svg version="1.0" xmlns="http://www.w3.org/2000/svg"
 width="1000.000000pt" height="1000.000000pt" viewBox="0 0 1000.000000 1000.000000"
 preserveAspectRatio="xMidYMid meet">
<metadata>
Created by potrace 1.11, written by Peter Selinger 2001-2013
</metadata>
<g transform="translate(0.000000,1000.000000) scale(0.100000,-0.100000)"
fill="#000000" stroke="none">
<path d="M6921 8283 c-24 -192 -208 -1707 -410 -3368 l-367 -3020 685 -3 c376
-1 686 0 688 2 2 2 186 1500 408 3327 222 1828 407 3343 410 3367 l6 42 -689
0 -689 0 -42 -347z"/>
<path d="M4230 6620 c-553 -43 -1037 -212 -1505 -523 -755 -503 -1251 -1343
-1345 -2282 -15 -141 -14 -502 0 -625 79 -677 400 -1147 897 -1309 148 -48
273 -65 447 -58 309 12 557 102 828 302 114 84 330 296 430 421 l83 105 6
-213 c3 -117 11 -235 18 -261 25 -106 88 -189 175 -234 94 -48 148 -53 593
-53 l411 0 6 38 c8 50 556 4429 559 4466 2 29 0 31 -88 58 -241 76 -493 125
-775 153 -202 19 -584 27 -740 15z m136 -987 c-3 -21 -40 -310 -81 -643 -78
-623 -85 -665 -156 -885 -196 -615 -487 -1051 -774 -1161 -36 -14 -75 -19
-140 -19 -77 1 -99 5 -152 29 -211 96 -315 400 -300 871 10 278 45 478 123
707 108 316 256 555 470 757 262 248 573 377 917 380 l99 1 -6 -37z"/>
</g>
</svg>
